# xmcd
#
# Track frame offsets:
#	150
#	14752
#	34512
#	49305
#	66657
#	79147
#	93729
#	109265
#	122665
#	139745
#	157892
#
# Disc length: 2404 seconds
# Revision: 5
# Processed by: cddbd v1.5.2PL0 Copyright (c) Steve Scherf et al.
# Submitted via: dBpowerAMP V12.0
#
DISCID=9a09620b
DTITLE=Joe Diffie - Mr Christmas
DYEAR=1995
DGENRE=Christmas
TTITLE0=Mr. Christmas
TTITLE1=The Christmas Song (Chestnuts Roasting On An Open Fire)
TTITLE2=Leroy The Redneck Raindeer
TTITLE3=Have Yourself A Merry Little Christmas
TTITLE4=Let It Snow, Let It Snow, Let It Snow
TTITLE5=Wrap Me In Your Love
TTITLE6=All Because Of A Baby Boy
TTITLE7=Silent Night
TTITLE8=Praise And Alleluia To The Savior
TTITLE9=Magazine Angels
TTITLE10=O'Holy Night
EXTD=
EXTT0=
EXTT1=
EXTT2=
EXTT3=
EXTT4=
EXTT5=
EXTT6=
EXTT7=
EXTT8=
EXTT9=
EXTT10=
PLAYORDER=
